<svg id="Layer_1" data-name="Layer 1" xmlns="http://www.w3.org/2000/svg" viewBox="0 0 552.12 198.43">
  <defs>
    <style>
      .cls-1 {
        fill: #1c4042;
      }
    </style>
  </defs>
  <g>
    <g>
      <path d="M263.75,49.23a29.16,29.16,0,0,0,9.07,1.33q7.43,0,12.11-4.17a16.15,16.15,0,0,0,4.74-7.89c-.06.62-.13,1.26-.21,1.94q-.27,2.56-.45,5t-.18,4.38h6.1v-19H273.78v5h13.37A11.84,11.84,0,0,1,284.66,40a13.17,13.17,0,0,1-4.86,3.3,20.77,20.77,0,0,1-15.2-.55,11.29,11.29,0,0,1-5-4.83,15.46,15.46,0,0,1-1.67-7.4A15,15,0,0,1,259.77,23a12.89,12.89,0,0,1,5.4-5.14A20.09,20.09,0,0,1,280,17.05,12.37,12.37,0,0,1,284.51,20a11,11,0,0,1,2.57,4.48h6.34a14,14,0,0,0-2.9-7.65,16.8,16.8,0,0,0-6.83-5A25.92,25.92,0,0,0,273.54,10a28.51,28.51,0,0,0-9.18,1.42,20.77,20.77,0,0,0-7.19,4.11,18,18,0,0,0-4.65,6.5,21.56,21.56,0,0,0-1.64,8.58A22,22,0,0,0,252.43,39a16.9,16.9,0,0,0,4.41,6.31A19.31,19.31,0,0,0,263.75,49.23Z"/>
      <path d="M310.1,33.09a13.89,13.89,0,0,1,1.57-2.83,11.92,11.92,0,0,1,3.71-3.39A10.78,10.78,0,0,1,321,25.48v-6.4a9.89,9.89,0,0,0-4.5,1,10.2,10.2,0,0,0-3.2,2.51,14.52,14.52,0,0,0-2.06,3.17,19,19,0,0,0-1.11,3v-9h-6.71V49.83h6.71Z"/>
      <path d="M332.91,48.5a14.62,14.62,0,0,0,7.52,2A12.51,12.51,0,0,0,346.74,49a12,12,0,0,0,4.11-3.84,17.39,17.39,0,0,0,2.27-5.11V42.7c0,1,0,2.07.12,3.17s.2,2.43.36,4h6.28V19.74h-6.76v8.81c-.15-.57-.3-1.13-.49-1.68a11.48,11.48,0,0,0-4-5.68,12.61,12.61,0,0,0-7.68-2.11,15.56,15.56,0,0,0-7.85,2,14.76,14.76,0,0,0-5.56,5.53,16.14,16.14,0,0,0-2.06,8.25,16,16,0,0,0,2,8.12A14.74,14.74,0,0,0,332.91,48.5Zm2.08-21c1.77-1.9,4.27-2.84,7.49-2.84a12.14,12.14,0,0,1,5.74,1.24,8.69,8.69,0,0,1,3.63,3.5,11.09,11.09,0,0,1,1.27,5.47A10.82,10.82,0,0,1,351.88,40a8.81,8.81,0,0,1-3.63,3.6,11.86,11.86,0,0,1-5.77,1.3,10.63,10.63,0,0,1-5.25-1.27,9.15,9.15,0,0,1-3.6-3.57,10.43,10.43,0,0,1-1.3-5.25A10.36,10.36,0,0,1,335,27.48Z"/>
      <path d="M395.17,21.1a14.57,14.57,0,0,0-7.62-2,14.4,14.4,0,0,0-6.31,1.24,10.62,10.62,0,0,0-4.11,3.38,14,14,0,0,0-2.2,4.88V27.11l-.31-7.37h-6.4V61.92h6.71V40.07a17.78,17.78,0,0,0,2.26,5.14,11.67,11.67,0,0,0,4.11,3.84,12.61,12.61,0,0,0,6.25,1.45,14.6,14.6,0,0,0,13-7.46,16.3,16.3,0,0,0,2-8.19,16.4,16.4,0,0,0-2-8.19A14.79,14.79,0,0,0,395.17,21.1Zm-.73,19a8.87,8.87,0,0,1-3.56,3.57,10.79,10.79,0,0,1-5.32,1.27,11.68,11.68,0,0,1-5.74-1.3A9,9,0,0,1,376.2,40a10.5,10.5,0,0,1-1.27-5.19,10.22,10.22,0,0,1,1.39-5.47,9.52,9.52,0,0,1,3.8-3.53,11.49,11.49,0,0,1,5.44-1.27c3.22,0,5.72,1,7.49,2.87a10.46,10.46,0,0,1,2.66,7.4A10.63,10.63,0,0,1,394.44,40.1Z"/>
      <path d="M438.1,22a10.79,10.79,0,0,0-3.81-2.15,15.38,15.38,0,0,0-4.8-.72,13.06,13.06,0,0,0-9.07,3.44,12.86,12.86,0,0,0-2.72,3.6,14.21,14.21,0,0,0-.9,2.28V7.66h-6.71V49.83h6.71V32a8.6,8.6,0,0,1,1.33-2.61,10.56,10.56,0,0,1,3.74-3.11A10.89,10.89,0,0,1,427,25.12a10,10,0,0,1,4.47.85,5.5,5.5,0,0,1,2.51,2.44,8.88,8.88,0,0,1,.81,4v17.4h6.71V30.26a12.21,12.21,0,0,0-.88-4.81A9.51,9.51,0,0,0,438.1,22Z"/>
      <path d="M286.41,100.09A8.14,8.14,0,0,0,289,97a10.59,10.59,0,0,0,.91-4.56,11.38,11.38,0,0,0-1.76-6.56,10.37,10.37,0,0,0-5-3.81,21,21,0,0,0-7.55-1.24H252.46V120h6.88v-15h13.72a22.89,22.89,0,0,1,5.59.52,4.41,4.41,0,0,1,2.78,1.81,6.75,6.75,0,0,1,.81,3.59V120h6.83v-9.49a8.1,8.1,0,0,0-1.33-5,6.74,6.74,0,0,0-3.86-2.36,22.67,22.67,0,0,0-3.63-.55,20.31,20.31,0,0,0,2.39-.57A12.43,12.43,0,0,0,286.41,100.09ZM275.6,99.3H259.34V86.8H275.6a8.44,8.44,0,0,1,5.49,1.54A5.33,5.33,0,0,1,283,92.72a6.34,6.34,0,0,1-1.88,4.77A7.57,7.57,0,0,1,275.6,99.3Z"/>
      <path d="M323.12,91.12a19,19,0,0,0-9-1.91A20.6,20.6,0,0,0,305,91.15a14.82,14.82,0,0,0-6.19,5.49,15.39,15.39,0,0,0-2.24,8.34,14.85,14.85,0,0,0,2.3,8.34,15,15,0,0,0,6.34,5.41,21.33,21.33,0,0,0,9.19,1.9,20.11,20.11,0,0,0,7.79-1.36,12.61,12.61,0,0,0,5.17-3.74,11.44,11.44,0,0,0,2.38-5.47h-6.46a6.46,6.46,0,0,1-3.11,3.68,11.51,11.51,0,0,1-5.89,1.39,12.76,12.76,0,0,1-5.5-1.11,9.12,9.12,0,0,1-3.72-3.15,10.16,10.16,0,0,1-1.66-4.56h26.52a19.91,19.91,0,0,0-1.45-9.51A11.85,11.85,0,0,0,323.12,91.12Zm-19.37,10.72a9.1,9.1,0,0,1,3.45-5.17,10.88,10.88,0,0,1,6.76-2,10.32,10.32,0,0,1,6.47,1.9,7,7,0,0,1,2.72,5.29Z"/>
      <path d="M344.9,95.68a7.61,7.61,0,0,1,4.23-1,6.68,6.68,0,0,1,4.17,1.09,5.66,5.66,0,0,1,1.87,3.5h5.92a10.07,10.07,0,0,0-1.36-5.25,9.07,9.07,0,0,0-4-3.57,15.16,15.16,0,0,0-6.56-1.27,18.55,18.55,0,0,0-5,.64,13.33,13.33,0,0,0-4,1.78,8.19,8.19,0,0,0-2.63,2.81,7.4,7.4,0,0,0-.94,3.72,6.75,6.75,0,0,0,1,3.77,7.76,7.76,0,0,0,2.75,2.54,19.42,19.42,0,0,0,3.92,1.66c1.46.44,2.93.85,4.42,1.21a24.52,24.52,0,0,1,3.62.84,6,6,0,0,1,2.21,1.21,2.74,2.74,0,0,1,.75,2.06,3.66,3.66,0,0,1-.51,1.93,3.36,3.36,0,0,1-1.75,1.33,9.79,9.79,0,0,1-3.42.48,9,9,0,0,1-5.37-1.42,5.9,5.9,0,0,1-2.48-3.71h-6.23a6,6,0,0,0,.22,2.23,9.68,9.68,0,0,0,1.23,2.78,10.37,10.37,0,0,0,2.57,2.72,13.54,13.54,0,0,0,4.17,2.06,20.15,20.15,0,0,0,5.95.78,18.79,18.79,0,0,0,6.71-1.06,9.2,9.2,0,0,0,4.26-3,7.82,7.82,0,0,0,1.48-4.77,6.76,6.76,0,0,0-3.35-6.19,16.33,16.33,0,0,0-3.48-1.57c-1.29-.43-2.66-.84-4.11-1.24s-2.94-.73-4.11-1.09a8.15,8.15,0,0,1-2.68-1.3,2.45,2.45,0,0,1-.94-2A3,3,0,0,1,344.9,95.68Z"/>
      <path d="M394.17,91.12a19,19,0,0,0-9-1.91,20.57,20.57,0,0,0-9.15,1.94,14.84,14.84,0,0,0-6.2,5.49,15.38,15.38,0,0,0-2.23,8.34,14.85,14.85,0,0,0,2.29,8.34,15,15,0,0,0,6.35,5.41,21.32,21.32,0,0,0,9.18,1.9,20.19,20.19,0,0,0,7.8-1.36,12.64,12.64,0,0,0,5.16-3.74,11.46,11.46,0,0,0,2.39-5.47h-6.47a6.46,6.46,0,0,1-3.11,3.68,11.49,11.49,0,0,1-5.89,1.39,12.76,12.76,0,0,1-5.5-1.11,9,9,0,0,1-3.71-3.15,10.16,10.16,0,0,1-1.66-4.56H401a20,20,0,0,0-1.45-9.51A11.87,11.87,0,0,0,394.17,91.12Zm-19.36,10.72a9.13,9.13,0,0,1,3.44-5.17,10.91,10.91,0,0,1,6.77-2,10.29,10.29,0,0,1,6.46,1.9,7,7,0,0,1,2.72,5.29Z"/>
      <path d="M434,98.69q-.21-.87-.48-1.68a11.51,11.51,0,0,0-4.05-5.68,12.59,12.59,0,0,0-7.68-2.12,15.59,15.59,0,0,0-7.85,2,14.76,14.76,0,0,0-5.56,5.53,17.48,17.48,0,0,0,0,16.37,14.7,14.7,0,0,0,13,7.52,12.47,12.47,0,0,0,6.32-1.48,11.73,11.73,0,0,0,4.1-3.84,17.19,17.19,0,0,0,2.27-5.1v2.63c0,1,0,2.06.12,3.17s.2,2.43.36,4h6.29V89.88H434Zm-1.24,11.49a8.7,8.7,0,0,1-3.62,3.59,11.91,11.91,0,0,1-5.77,1.3,10.64,10.64,0,0,1-5.26-1.27,9.13,9.13,0,0,1-3.6-3.56,10.54,10.54,0,0,1-1.29-5.26,10.37,10.37,0,0,1,2.65-7.37,9.79,9.79,0,0,1,7.5-2.84A12.17,12.17,0,0,1,429.13,96a8.67,8.67,0,0,1,3.62,3.5A11,11,0,0,1,434,105,10.72,10.72,0,0,1,432.78,110.18Z"/>
      <path d="M459,92.69A14,14,0,0,0,457,95.86a17.88,17.88,0,0,0-1.12,3v-9h-6.71V120h6.71V103.23a15,15,0,0,1,1.57-2.84A11.82,11.82,0,0,1,461.12,97a10.66,10.66,0,0,1,5.59-1.39V89.21a9.83,9.83,0,0,0-4.5,1A10.1,10.1,0,0,0,459,92.69Z"/>
      <path d="M495.44,113.35a11.26,11.26,0,0,1-6.56,1.78,13.16,13.16,0,0,1-5.44-1.11,9.12,9.12,0,0,1-4-3.42,11.47,11.47,0,0,1,0-11.27,9.51,9.51,0,0,1,4-3.44,12.45,12.45,0,0,1,5.44-1.18,11.2,11.2,0,0,1,6.31,1.78,9.13,9.13,0,0,1,3.72,5h6.16a12.44,12.44,0,0,0-2.47-6.59,13.87,13.87,0,0,0-5.62-4.2,22.6,22.6,0,0,0-17.07.4,15.33,15.33,0,0,0-6.38,5.37,15.14,15.14,0,0,0,6.38,22.36,21.55,21.55,0,0,0,9,1.81,21.25,21.25,0,0,0,8.13-1.45,13.31,13.31,0,0,0,5.65-4.23,12.74,12.74,0,0,0,2.47-6.64H499A9,9,0,0,1,495.44,113.35Z"/>
      <path d="M543.11,95.59a9.65,9.65,0,0,0-2.48-3.51,10.77,10.77,0,0,0-3.81-2.14,15.1,15.1,0,0,0-4.8-.73,13.35,13.35,0,0,0-5.07.94,12.71,12.71,0,0,0-4,2.51,12.49,12.49,0,0,0-2.72,3.59,13.48,13.48,0,0,0-.91,2.29V77.79h-6.7V120h6.7V102.16a8.65,8.65,0,0,1,1.33-2.62,10.92,10.92,0,0,1,8.82-4.28,10.09,10.09,0,0,1,4.47.84,5.47,5.47,0,0,1,2.51,2.45,8.88,8.88,0,0,1,.82,4V120H544V100.39A12.38,12.38,0,0,0,543.11,95.59Z"/>
      <polygon points="259.34 150.95 252.46 150.95 252.46 190.1 283.75 190.1 283.75 184.18 259.34 184.18 259.34 150.95"/>
      <path d="M316.26,168.82q-.21-.85-.48-1.68a11.56,11.56,0,0,0-4-5.68,12.55,12.55,0,0,0-7.67-2.11,15.62,15.62,0,0,0-7.86,2,14.83,14.83,0,0,0-5.56,5.53,17.48,17.48,0,0,0,0,16.37,14.73,14.73,0,0,0,13,7.53,12.57,12.57,0,0,0,6.32-1.48,12,12,0,0,0,4.11-3.84,17.37,17.37,0,0,0,2.26-5.11V183c0,1,0,2.07.12,3.17s.2,2.43.37,4H323V160h-6.77ZM315,180.31a8.72,8.72,0,0,1-3.62,3.6,11.88,11.88,0,0,1-5.77,1.3,10.64,10.64,0,0,1-5.26-1.27,9.06,9.06,0,0,1-3.59-3.57,10.43,10.43,0,0,1-1.3-5.25,10.31,10.31,0,0,1,2.66-7.37c1.77-1.9,4.26-2.84,7.49-2.84a12.17,12.17,0,0,1,5.74,1.24,8.61,8.61,0,0,1,3.62,3.5,11,11,0,0,1,1.27,5.47A10.7,10.7,0,0,1,315,180.31Z"/>
      <path d="M359,161.34a14.81,14.81,0,0,0-7.71-2,14.56,14.56,0,0,0-6.37,1.24,10.62,10.62,0,0,0-4.11,3.38,13.56,13.56,0,0,0-2.14,4.77V147.93h-6.77V190.1h6.22c.12-.92.24-2.07.36-3.44s.19-2.6.19-3.69v-2.52a16.58,16.58,0,0,0,2.2,5,12,12,0,0,0,4.11,3.84,12.51,12.51,0,0,0,6.31,1.48,14.52,14.52,0,0,0,13-7.53,16.21,16.21,0,0,0,2-8.12,16.73,16.73,0,0,0-2-8.25A14.49,14.49,0,0,0,359,161.34Zm-.88,19a9,9,0,0,1-3.53,3.57,10.77,10.77,0,0,1-5.35,1.27,11.68,11.68,0,0,1-5.74-1.3,8.85,8.85,0,0,1-3.6-3.6,10.81,10.81,0,0,1-1.23-5.19,11.31,11.31,0,0,1,1.23-5.47,8.73,8.73,0,0,1,3.63-3.54,12.06,12.06,0,0,1,5.71-1.26c3.22,0,5.72,1,7.49,2.87a10.46,10.46,0,0,1,2.66,7.4A10.63,10.63,0,0,1,358.07,180.37Z"/>
      <path d="M395,175.69a16.84,16.84,0,0,0-3.48-1.57c-1.29-.42-2.65-.83-4.1-1.24s-2.95-.72-4.11-1.09a8.12,8.12,0,0,1-2.69-1.29,2.47,2.47,0,0,1-.94-2,3,3,0,0,1,1.45-2.66,7.7,7.7,0,0,1,4.23-1,6.74,6.74,0,0,1,4.17,1.08,5.67,5.67,0,0,1,1.87,3.51h5.92a10.11,10.11,0,0,0-1.36-5.26,9,9,0,0,0-4-3.56,15,15,0,0,0-6.56-1.27,18.88,18.88,0,0,0-5,.63,13.51,13.51,0,0,0-4,1.78,8.37,8.37,0,0,0-2.63,2.81,7.5,7.5,0,0,0-.94,3.72,6.87,6.87,0,0,0,1,3.78,7.74,7.74,0,0,0,2.75,2.53,19.52,19.52,0,0,0,3.93,1.67q2.18.66,4.41,1.2a25.4,25.4,0,0,1,3.62.85,5.74,5.74,0,0,1,2.21,1.21,2.72,2.72,0,0,1,.75,2.05,3.7,3.7,0,0,1-.51,1.94,3.47,3.47,0,0,1-1.75,1.33,9.79,9.79,0,0,1-3.42.48,9.07,9.07,0,0,1-5.37-1.42,6,6,0,0,1-2.48-3.72h-6.22a6,6,0,0,0,.21,2.24,9.69,9.69,0,0,0,1.24,2.78,10.64,10.64,0,0,0,2.56,2.72,13.53,13.53,0,0,0,4.17,2,20.13,20.13,0,0,0,5.95.79,19,19,0,0,0,6.71-1.06,9.2,9.2,0,0,0,4.26-3.05,7.76,7.76,0,0,0,1.48-4.77,7.14,7.14,0,0,0-.91-3.75A7.06,7.06,0,0,0,395,175.69Z"/>
    </g>
    <path class="cls-1" d="M200.62,97.43V190l-56.68-37.49-27.42,26A42.37,42.37,0,0,1,87.41,190H8.13L90.6,113.18a56.61,56.61,0,0,1,39.31-15.75Z"/>
    <path class="cls-1" d="M117.83,82.66l77.25-72.11H34.34A26.22,26.22,0,0,0,8.13,36.76V97.44H79.65A56,56,0,0,0,117.83,82.66Z"/>
  </g>
</svg>
